<?xml version="1.0" encoding="UTF-8"?>
<svg version="1.1" xmlns="http://www.w3.org/2000/svg" width="100" height="100">
<path d="M0 0 C2.82421875 1.6171875 2.82421875 1.6171875 5.6875 3.875 C6.64011719 4.59429688 7.59273437 5.31359375 8.57421875 6.0546875 C11.03257629 9.03955318 11.36760331 9.90400769 11.94799805 13.52099609 C12.9530404 19.04836963 14.52910905 24.27047417 16.2578125 29.609375 C16.88948994 31.60020743 17.52099535 33.59109445 18.15234375 35.58203125 C19.14136717 38.67919725 20.13317741 41.77543153 21.12841797 44.87060547 C22.09560609 47.88539699 23.05224898 50.90338241 24.0078125 53.921875 C24.3077713 54.84385681 24.6077301 55.76583862 24.91677856 56.71575928 C26.33953978 61.22667261 27.57281841 65.21333443 27 70 C24.14953786 74.18067781 21.48222354 75.33995324 16.6875 76.3125 C15.12790527 76.56066909 13.56601911 76.79626547 12 77 C12.1546875 78.85625 12.1546875 78.85625 12.3125 80.75 C12.29474647 84.08766429 12.18144891 84.77318887 10 87.5 C6.01367043 89.49316478 3.41916048 89.2996041 -1 89 C-1.625 86.625 -1.625 86.625 -2 84 C0 82 0 82 2.625 81.875 C3.40875 81.91625 4.1925 81.9575 5 82 C4.95536735 77.90995644 4.88504917 73.82117973 4.79248047 69.73193359 C4.76452356 68.34533524 4.74318529 66.958585 4.72900391 65.57177734 C4.62238657 55.72744331 3.52724266 47.74809915 -1.6875 39.25 C-3.27648001 36.52603427 -3.6384299 34.10950289 -4 31 C-9.43178039 36.28319065 -14.86859616 41.70002563 -19.33984375 47.83984375 C-20.5625 49.5 -20.5625 49.5 -23 52 C-26.3125 52.375 -26.3125 52.375 -29 52 C-29.33 51.34 -29.66 50.68 -30 50 C-30.33 60.56 -30.66 71.12 -31 82 C-23.84970177 81.92090694 -23.84970177 81.92090694 -16.69970703 81.81982422 C-15.81138184 81.8148291 -14.92305664 81.80983398 -14.0078125 81.8046875 C-12.64100342 81.78897705 -12.64100342 81.78897705 -11.24658203 81.77294922 C-9 82 -9 82 -7 84 C-7.375 86.625 -7.375 86.625 -8 89 C-12.24977046 89.11611395 -16.49913337 89.18722349 -20.75 89.25 C-21.9565625 89.28351563 -23.163125 89.31703125 -24.40625 89.3515625 C-26.14648438 89.37089844 -26.14648438 89.37089844 -27.921875 89.390625 C-28.99018555 89.41157227 -30.05849609 89.43251953 -31.15917969 89.45410156 C-34.70460849 88.88736922 -35.8228354 87.79885061 -38 85 C-39.71331334 79.86005999 -39.18463055 74.44271188 -39.1875 69.0625 C-39.19974609 67.88880859 -39.21199219 66.71511719 -39.22460938 65.50585938 C-39.23982713 56.32955329 -39.25323341 46.72274139 -34.75 38.5 C-32.37061348 33.68874048 -33.3039929 29.92663265 -34.4140625 24.8203125 C-35.11762957 21.43380969 -35.15636023 18.43992516 -35 15 C-33.75823305 14.29773859 -32.50614401 13.61370891 -31.25 12.9375 C-30.55390625 12.55464844 -29.8578125 12.17179687 -29.140625 11.77734375 C-26.63859372 10.8687594 -25.4667645 11.11663163 -23 12 C-22.3125 13.8125 -22.3125 13.8125 -22 16 C-23.3125 17.75 -23.3125 17.75 -25 19 C-25.66 19 -26.32 19 -27 19 C-26.855625 19.6290625 -26.71125 20.258125 -26.5625 20.90625 C-25.02177522 28.01070314 -23.77567471 34.27757012 -26.51953125 41.2421875 C-26.93295776 42.30348877 -26.93295776 42.30348877 -27.35473633 43.38623047 C-27.56767334 43.91877441 -27.78061035 44.45131836 -28 45 C-18.21504424 34.43688363 -8.55170765 23.77495087 1 13 C0.01 11.68 -0.98 10.36 -2 9 C-5.11253583 9.45772586 -7.25349805 10.13450917 -10.0625 11.625 C-13 13 -13 13 -15.375 12.6875 C-16.179375 12.3471875 -16.179375 12.3471875 -17 12 C-17.33 10.35 -17.66 8.7 -18 7 C-15.94414903 5.82006797 -13.88163459 4.65621545 -11.8125 3.5 C-10.66394531 2.8503125 -9.51539062 2.200625 -8.33203125 1.53125 C-5.04111819 0.01889605 -3.5166107 -0.66713836 0 0 Z M6 26 C4.1546648 30.36170138 3.46339386 32.57682719 5.16796875 37.09765625 C6.70869018 40.10956537 8.34395778 43.05058444 10 46 C10.9300889 48.7902667 11.18698769 50.76529542 11.31640625 53.66796875 C11.35830078 54.56064453 11.40019531 55.45332031 11.44335938 56.37304688 C11.48267578 57.30181641 11.52199219 58.23058594 11.5625 59.1875 C11.60568359 60.12787109 11.64886719 61.06824219 11.69335938 62.03710938 C11.79938665 64.35792854 11.90145029 66.67885325 12 69 C15.465 68.505 15.465 68.505 19 68 C18.43964629 62.54780754 17.44760341 57.52091119 15.78515625 52.2890625 C15.5693541 51.59485199 15.35355194 50.90064148 15.13121033 50.18539429 C14.67813153 48.73404112 14.22167927 47.28373704 13.76196289 45.83447266 C13.05859904 43.61267759 12.36948844 41.38679762 11.68164062 39.16015625 C11.237818 37.7445284 10.79318562 36.32915412 10.34765625 34.9140625 C10.14237808 34.24952057 9.93709991 33.58497864 9.7256012 32.90029907 C8.7991524 30.00702193 8.18072833 28.18072833 6 26 Z " fill="#000000" transform="translate(61,5)"/>
</svg>
